# This file uses centimeters as units for non-parametric coordinates.

mtllib diamond.mtl
g default
v -0.672321 1.577297 -1.783678
v 0.513103 1.573366 -1.818828
v 0.472333 1.622799 -1.496616
v 0.356190 1.763621 -1.223378
v 0.182356 1.974391 -1.040795
v -0.022703 2.223020 -0.976664
v -0.227768 2.471657 -1.040749
v -0.401619 2.682447 -1.223293
v -0.517787 2.823299 -1.496504
v -0.558587 2.872768 -1.818788
v -0.517806 2.823323 -2.141078
v -0.401655 2.682491 -2.414307
v -0.227815 2.471714 -2.596877
v -0.022754 2.223082 -2.660993
v 0.182308 1.974448 -2.596893
v 0.356153 1.763665 -2.414336
v 0.472313 1.622823 -2.141115
v 0.561428 1.613222 -1.818828
v 0.520657 1.662655 -1.496616
v 0.404514 1.803477 -1.223378
v 0.230680 2.014247 -1.040795
v 0.025621 2.262876 -0.976664
v -0.179443 2.511513 -1.040749
v -0.353294 2.722303 -1.223293
v -0.469462 2.863155 -1.496504
v -0.510262 2.912624 -1.818788
v -0.469482 2.863179 -2.141078
v -0.353330 2.722347 -2.414307
v -0.179491 2.511571 -2.596877
v 0.025570 2.262938 -2.660993
v 0.230633 2.014304 -2.596893
v 0.404478 1.803521 -2.414336
v 0.520638 1.662679 -2.141115
v 0.545506 2.028644 -1.623051
v 0.340151 2.277632 -1.300249
v 0.049711 2.629784 -1.300217
v -0.073405 2.779061 -1.429490
v -0.155673 2.878808 -1.622971
v -0.155687 2.878825 -2.079443
v 0.049678 2.629825 -2.402229
v 0.340117 2.277673 -2.402240
v 0.545492 2.028661 -2.079469
v -0.667873 1.571904 -1.818828
v -0.684990 1.592659 -1.753871
v -0.703954 1.615652 -1.733953
v -0.726324 1.642775 -1.726957
v -0.748694 1.669898 -1.733948
v -0.767659 1.692893 -1.753862
v -0.780332 1.708259 -1.783666
v -0.784783 1.713655 -1.818824
v -0.780334 1.708261 -1.853982
v -0.767663 1.692898 -1.883789
v -0.748699 1.669905 -1.903705
v -0.726329 1.642781 -1.910700
v -0.703959 1.615658 -1.903707
v -0.684994 1.592664 -1.883792
v -0.672323 1.577299 -1.853987
vt 0.507813 0.250000
vt 0.500000 0.000000
vt 0.546875 0.500000
vt 0.554688 0.250000
vt 0.570313 0.250000
vt 0.562500 0.000000
vt 0.609375 0.500000
vt 0.605469 0.375000
vt 0.632813 0.250000
vt 0.625000 0.000000
vt 0.671875 0.500000
vt 0.667969 0.375000
vt 0.695313 0.250000
vt 0.687500 0.000000
vt 0.734375 0.500000
vt 0.730469 0.375000
vt 0.961939 0.691344
vt 0.691333 0.961943
vt 0.308645 0.961934
vt 0.038052 0.691322
vt 0.038071 0.308633
vt 0.146468 0.146425
vt 0.308689 0.038048
vt 0.691378 0.038075
vt 0.961957 0.308700
vt 0.757813 0.250000
vt 0.750000 0.000000
vt 0.796875 0.500000
vt 0.792969 0.375000
vt 0.820313 0.250000
vt 0.812500 0.000000
vt 0.859375 0.500000
vt 0.855469 0.375000
vt 0.882813 0.250000
vt 0.875000 0.000000
vt 0.921875 0.500000
vt 0.917969 0.375000
vt 0.945313 0.250000
vt 0.937500 0.000000
vt 0.984375 0.500000
vt 0.980469 0.375000
vt 0.007813 0.250000
vt 0.000000 0.000000
vt 0.046875 0.500000
vt 0.042969 0.375000
vt 0.070313 0.250000
vt 0.062500 0.000000
vt 0.109375 0.500000
vt 0.105469 0.375000
vt 0.132813 0.250000
vt 0.125000 0.000000
vt 0.171875 0.500000
vt 0.167969 0.375000
vt 0.195313 0.250000
vt 0.187500 0.000000
vt 0.234375 0.500000
vt 0.230469 0.375000
vt 0.257813 0.250000
vt 0.250000 0.000000
vt 0.296875 0.500000
vt 0.292969 0.375000
vt 0.320313 0.250000
vt 0.312500 0.000000
vt 0.359375 0.500000
vt 0.355469 0.375000
vt 0.445313 0.250000
vt 0.437500 0.000000
vt 0.484375 0.500000
vt 0.492188 0.250000
vt 0.382813 0.250000
vt 0.375000 0.000000
vt 0.421875 0.500000
vt 0.417969 0.375000
vn -0.771465 -0.636271 0.000000
vn -0.771465 -0.636271 0.000000
vn -0.771465 -0.636271 0.000000
vn -0.771465 -0.636271 0.000000
vn -0.771465 -0.636271 0.000000
vn -0.771465 -0.636271 0.000000
vn -0.771465 -0.636271 0.000000
vn -0.771465 -0.636271 0.000000
vn -0.771465 -0.636271 0.000000
vn -0.771465 -0.636271 0.000000
vn -0.771465 -0.636271 0.000000
vn -0.771465 -0.636271 0.000000
vn -0.771465 -0.636271 0.000000
vn -0.771465 -0.636271 0.000000
vn -0.771465 -0.636271 0.000000
vn -0.771465 -0.636271 0.000000
vn -0.771465 -0.636271 0.000000
vn -0.771465 -0.636271 0.000000
vn -0.771465 -0.636271 0.000000
vn -0.771465 -0.636271 0.000000
vn 0.001224 -0.988411 0.151795
vn 0.001224 -0.988411 0.151795
vn 0.001224 -0.988411 0.151795
vn 0.001224 -0.988411 0.151795
vn -0.072690 -0.898786 0.432318
vn -0.072690 -0.898786 0.432318
vn -0.072690 -0.898786 0.432318
vn -0.072690 -0.898786 0.432318
vn -0.209301 -0.733149 0.647060
vn -0.209301 -0.733149 0.647060
vn -0.209301 -0.733149 0.647060
vn -0.209301 -0.733149 0.647060
vn -0.387800 -0.516722 0.763288
vn -0.387800 -0.516722 0.763288
vn -0.387800 -0.516722 0.763288
vn -0.387800 -0.516722 0.763288
vn 0.771465 0.636271 0.000000
vn 0.771465 0.636271 0.000000
vn 0.771465 0.636271 0.000000
vn 0.771465 0.636271 0.000000
vn 0.771465 0.636271 0.000000
vn 0.771465 0.636271 0.000000
vn 0.771465 0.636271 0.000000
vn 0.771465 0.636271 0.000000
vn 0.771465 0.636271 0.000000
vn 0.624051 -0.756649 0.195046
vn 0.624051 -0.756649 0.195046
vn 0.624051 -0.756649 0.195046
vn 0.624051 -0.756649 0.195046
vn 0.529071 -0.641487 0.555498
vn 0.529071 -0.641487 0.555498
vn 0.529071 -0.641487 0.555498
vn 0.529071 -0.641487 0.555498
vn 0.353536 -0.428655 0.831425
vn 0.353536 -0.428655 0.831425
vn 0.353536 -0.428655 0.831425
vn 0.353536 -0.428655 0.831425
vn 0.124177 -0.150562 0.980771
vn 0.124177 -0.150562 0.980771
vn 0.124177 -0.150562 0.980771
vn 0.124177 -0.150562 0.980771
vn -0.124087 0.150453 0.980799
vn -0.124087 0.150453 0.980799
vn -0.124087 0.150453 0.980799
vn -0.124087 0.150453 0.980799
vn -0.353460 0.428563 0.831505
vn -0.353460 0.428563 0.831505
vn -0.353460 0.428563 0.831505
vn -0.353460 0.428563 0.831505
vn -0.529020 0.641426 0.555617
vn -0.529020 0.641426 0.555617
vn -0.529020 0.641426 0.555617
vn -0.529020 0.641426 0.555617
vn -0.624039 0.756634 0.195140
vn -0.624039 0.756634 0.195140
vn -0.624039 0.756634 0.195140
vn -0.624039 0.756634 0.195140
vn -0.624051 0.756649 -0.195046
vn -0.624051 0.756649 -0.195046
vn -0.624051 0.756649 -0.195046
vn -0.624051 0.756649 -0.195046
vn -0.529054 0.641467 -0.555538
vn -0.529054 0.641467 -0.555538
vn -0.529054 0.641467 -0.555538
vn -0.529054 0.641467 -0.555538
vn -0.353511 0.428624 -0.831451
vn -0.353511 0.428624 -0.831451
vn -0.353511 0.428624 -0.831451
vn -0.353511 0.428624 -0.831451
vn -0.124147 0.150526 -0.980780
vn -0.124147 0.150526 -0.980780
vn -0.124147 0.150526 -0.980780
vn -0.124147 0.150526 -0.980780
vn 0.124117 -0.150490 -0.980789
vn 0.124117 -0.150490 -0.980789
vn 0.124117 -0.150490 -0.980789
vn 0.124117 -0.150490 -0.980789
vn 0.353485 -0.428594 -0.831478
vn 0.353485 -0.428594 -0.831478
vn 0.353485 -0.428594 -0.831478
vn 0.353485 -0.428594 -0.831478
vn 0.529037 -0.641446 -0.555578
vn 0.529037 -0.641446 -0.555578
vn 0.529037 -0.641446 -0.555578
vn 0.529037 -0.641446 -0.555578
vn 0.624045 -0.756642 -0.195093
vn 0.624045 -0.756642 -0.195093
vn 0.624045 -0.756642 -0.195093
vn 0.624045 -0.756642 -0.195093
vn 0.991392 -0.022766 0.128936
vn 0.991392 -0.022766 0.128936
vn 0.991392 -0.022766 0.128936
vn 0.990199 -0.044972 -0.132225
vn 0.990199 -0.044972 -0.132225
vn 0.990199 -0.044972 -0.132225
vn 0.920858 0.003137 -0.389887
vn 0.920858 0.003137 -0.389887
vn 0.920858 0.003137 -0.389887
vn 0.785343 0.122084 -0.606904
vn 0.785343 0.122084 -0.606904
vn 0.785343 0.122084 -0.606904
vn 0.597367 0.301048 -0.743318
vn 0.597367 0.301048 -0.743318
vn 0.597367 0.301048 -0.743318
vn 0.384869 0.514946 -0.765968
vn 0.384869 0.514946 -0.765968
vn 0.384869 0.514946 -0.765968
vn 0.186637 0.726635 -0.661187
vn 0.186637 0.726635 -0.661187
vn 0.186637 0.726635 -0.661187
vn 0.042455 0.895306 -0.443423
vn 0.042455 0.895306 -0.443423
vn 0.042455 0.895306 -0.443423
vn -0.019017 0.987893 -0.153967
vn -0.019017 0.987893 -0.153967
vn -0.019017 0.987893 -0.153967
vn 0.011266 0.988574 0.150315
vn 0.011266 0.988574 0.150315
vn 0.011266 0.988574 0.150315
vn 0.121632 0.902352 0.413481
vn 0.121632 0.902352 0.413481
vn 0.121632 0.902352 0.413481
vn 0.121632 0.902352 0.413481
vn 0.286006 0.751134 0.594977
vn 0.286006 0.751134 0.594977
vn 0.286006 0.751134 0.594977
vn 0.286006 0.751134 0.594977
vn 0.473641 0.564812 0.675760
vn 0.473641 0.564812 0.675760
vn 0.473641 0.564812 0.675760
vn 0.656861 0.372679 0.655473
vn 0.656861 0.372679 0.655473
vn 0.656861 0.372679 0.655473
vn 0.814165 0.198952 0.545485
vn 0.814165 0.198952 0.545485
vn 0.814165 0.198952 0.545485
vn 0.929680 0.062304 0.363062
vn 0.929680 0.062304 0.363062
vn 0.929680 0.062304 0.363062
vn 0.999266 0.038313 -0.000029
vn 0.999266 0.038313 -0.000029
vn 0.999266 0.038313 -0.000029
vn 0.887974 0.188541 0.419469
vn 0.887974 0.188541 0.419469
vn 0.887974 0.188541 0.419469
vn 0.608648 0.501929 0.614504
vn 0.608648 0.501929 0.614504
vn 0.608648 0.501929 0.614504
vn 0.094916 0.995485 0.000034
vn 0.094916 0.995485 0.000034
vn 0.094916 0.995485 0.000034
vn 0.206782 0.833898 -0.511717
vn 0.206782 0.833898 -0.511717
vn 0.206782 0.833898 -0.511717
vn 0.552627 0.455804 -0.697743
vn 0.552627 0.455804 -0.697743
vn 0.552627 0.455804 -0.697743
vn 0.879098 0.131018 -0.458280
vn 0.879098 0.131018 -0.458280
vn 0.879098 0.131018 -0.458280
vn -0.581013 -0.282456 0.763310
vn -0.581013 -0.282456 0.763310
vn -0.581013 -0.282456 0.763310
vn -0.581013 -0.282456 0.763310
vn -0.759523 -0.066016 0.647122
vn -0.759523 -0.066016 0.647122
vn -0.759523 -0.066016 0.647122
vn -0.759523 -0.066016 0.647122
vn -0.896154 0.099646 0.432411
vn -0.896154 0.099646 0.432411
vn -0.896154 0.099646 0.432411
vn -0.896154 0.099646 0.432411
vn -0.970102 0.189307 0.151869
vn -0.970102 0.189307 0.151869
vn -0.970102 0.189307 0.151869
vn -0.970102 0.189307 0.151869
vn -0.970112 0.189318 -0.151795
vn -0.970112 0.189318 -0.151795
vn -0.970112 0.189318 -0.151795
vn -0.970112 0.189318 -0.151795
vn -0.896180 0.099677 -0.432350
vn -0.896180 0.099677 -0.432350
vn -0.896180 0.099677 -0.432350
vn -0.896180 0.099677 -0.432350
vn -0.759563 -0.065968 -0.647080
vn -0.759563 -0.065968 -0.647080
vn -0.759563 -0.065968 -0.647080
vn -0.759563 -0.065968 -0.647080
vn -0.581060 -0.282399 -0.763296
vn -0.581060 -0.282399 -0.763296
vn -0.581060 -0.282399 -0.763296
vn -0.581060 -0.282399 -0.763296
vn -0.387847 -0.516666 -0.763303
vn -0.387847 -0.516666 -0.763303
vn -0.387847 -0.516666 -0.763303
vn -0.387847 -0.516666 -0.763303
vn -0.209340 -0.733101 -0.647101
vn -0.209340 -0.733101 -0.647101
vn -0.209340 -0.733101 -0.647101
vn -0.209340 -0.733101 -0.647101
vn 0.001224 -0.988406 -0.151832
vn 0.001224 -0.988406 -0.151832
vn 0.001224 -0.988406 -0.151832
vn 0.001224 -0.988406 -0.151832
vn -0.072717 -0.898754 -0.432381
vn -0.072717 -0.898754 -0.432381
vn -0.072717 -0.898754 -0.432381
vn -0.072717 -0.898754 -0.432381
s off
g diamond_Mesh
usemtl initialShadingGroup
f 1/1/1 44/2/2 43/3/3
s 1
f 44/4/4 45/5/5 43/17/6
f 45/5/5 46/6/7 43/17/6
f 46/6/7 47/7/8 43/17/6
f 47/7/8 48/8/9 43/17/6
f 48/8/9 49/9/10 43/17/6
f 49/9/10 50/10/11 43/17/6
f 50/10/11 51/11/12 43/17/6
f 51/11/12 52/12/13 43/17/6
f 52/12/13 53/13/14 43/17/6
f 53/13/14 54/14/15 43/17/6
f 54/14/15 55/15/16 43/17/6
f 55/15/16 57/16/17 43/17/6
s off
f 55/18/18 56/19/19 57/20/20
s 2
f 43/21/21 2/22/22 1/24/23
f 2/22/22 3/23/24 1/24/23
s 3
f 1//25 3//26 44//27
f 3//26 4//28 44//27
s 4
f 44//29 4//30 45//31
f 4//30 5//32 45//31
s 5
f 45//33 5//34 46//35
f 5//34 6//36 46//35
s 6
f 42//37 41//38 34//39
f 41//38 40//40 34//39
f 40//40 39//41 34//39
f 39//41 38//42 34//39
f 34//39 38//42 35//43
f 38//42 37//44 35//43
f 37//44 36//45 35//43
s 7
f 18//46 19//47 2//48
f 2//48 19//47 3//49
s 8
f 19//50 20//51 3//52
f 3//52 20//51 4//53
s 9
f 20//54 21//55 4//56
f 4//56 21//55 5//57
s 10
f 21//58 22//59 5//60
f 5//60 22//59 6//61
s 11
f 22//62 23//63 6//64
f 6//64 23//63 7//65
s 12
f 23//66 24//67 7//68
f 7//68 24//67 8//69
s 13
f 24//70 25//71 8//72
f 8//72 25//71 9//73
s 14
f 25//74 26//75 9//76
f 9//76 26//75 10//77
s 15
f 26//78 27//79 10//80
f 10//80 27//79 11//81
s 16
f 27//82 28//83 11//84
f 11//84 28//83 12//85
s 17
f 28//86 29//87 12//88
f 12//88 29//87 13//89
s 18
f 29//90 30//91 13//92
f 13//92 30//91 14//93
s 19
f 30//94 31//95 14//96
f 14//96 31//95 15//97
s 20
f 31//98 32//99 15//100
f 15//100 32//99 16//101
s 21
f 32//102 33//103 16//104
f 16//104 33//103 17//105
s 22
f 33//106 18//107 17//108
f 17//108 18//107 2//109
s off
f 19//110 18//111 34//112
f 18//113 33//114 42//115
f 33//116 32//117 42//118
f 32//119 31//120 41//121
f 31//122 30//123 41//124
f 30//125 29//126 40//127
f 29//128 28//129 40//130
f 28//131 27//132 39//133
f 27//134 26//135 39//136
f 26//137 25//138 38//139
s 23
f 24//140 37//141 25//142
f 25//142 37//141 38//143
s 24
f 23//144 36//145 24//146
f 24//146 36//145 37//147
s off
f 23//148 22//149 36//150
f 22//151 21//152 35//153
f 21//154 20//155 35//156
f 20//157 19//158 34//159
f 34//160 18//161 42//162
f 35/28/163 20/29/164 34/30/165
f 36/31/166 22/32/167 35/33/168
f 39/34/169 26/35/170 38/36/171
f 40/37/172 28/38/173 39/39/174
f 41/40/175 30/41/176 40/42/177
f 42/43/178 32/44/179 41/45/180
s 25
f 46/46/181 6/47/182 47/49/183
f 6/47/182 7/48/184 47/49/183
s 26
f 47/50/185 7/51/186 48/53/187
f 7/51/186 8/52/188 48/53/187
s 27
f 48/54/189 8/55/190 49/57/191
f 8/55/190 9/56/192 49/57/191
s 28
f 49/58/193 9/59/194 50/61/195
f 9/59/194 10/60/196 50/61/195
s 29
f 50/62/197 10/63/198 51/65/199
f 10/63/198 11/64/200 51/65/199
s 30
f 51/66/201 11/67/202 52/69/203
f 11/67/202 12/68/204 52/69/203
s 31
f 52/70/205 12/71/206 53/73/207
f 12/71/206 13/72/208 53/73/207
s 32
f 53//209 13//210 54//211
f 13//210 14//212 54//211
s 33
f 54//213 14//214 55//215
f 14//214 15//216 55//215
s 34
f 55//217 15//218 56//219
f 15//218 16//220 56//219
s 35
f 57//221 17//222 43//223
f 17//222 2//224 43//223
s 36
f 56//225 16//226 57//227
f 16//226 17//228 57//227
